<svg xmlns="http://www.w3.org/2000/svg" width="26" height="26" viewBox="0 0 26 26"><g><g><path fill="#c4c0cf" d="M26 13c0 .881-.089 1.764-.267 2.618a12.692 12.692 0 0 1-.76 2.445 12.792 12.792 0 0 1-1.195 2.207 13.02 13.02 0 0 1-3.51 3.506c-.695.471-1.439.873-2.21 1.202a12.67 12.67 0 0 1-2.443.758 13.112 13.112 0 0 1-5.233 0 13.095 13.095 0 0 1-2.443-.758c-.77-.329-1.515-.73-2.208-1.201a13.27 13.27 0 0 1-1.925-1.582 13.033 13.033 0 0 1-1.584-1.925 12.822 12.822 0 0 1-1.957-4.652A12.972 12.972 0 0 1 0 13 12.975 12.975 0 0 1 2.222 5.73a12.918 12.918 0 0 1 3.509-3.509c.693-.47 1.438-.873 2.208-1.2.788-.33 1.608-.587 2.443-.755A12.852 12.852 0 0 1 13 0c.879 0 1.762.088 2.615.267a12.838 12.838 0 0 1 4.653 1.955 13.06 13.06 0 0 1 3.51 3.51c.468.695.873 1.438 1.196 2.209A13.015 13.015 0 0 1 26 13zM10.384 2.21c.165.22 2.25 2.99 4.147 6.479 4.19-1.571 5.772-3.978 5.8-4.021a11.048 11.048 0 0 0-7.332-2.772c-.901 0-1.776.111-2.615.314zm-.079.019l.03-.006.005-.003-.035.009zm-8.17 8.481c.292.006 4.92.06 10.249-1.355A66.002 66.002 0 0 0 8.26 2.96a11.113 11.113 0 0 0-6.126 7.751zm11.63 2.374c.146-.045.29-.087.438-.129a38.647 38.647 0 0 0-.9-1.889c-5.716 1.71-11.2 1.586-11.398 1.584-.002.114-.01.231-.01.349 0 2.852 1.076 5.45 2.842 7.415.003-.008 3.041-5.394 9.029-7.33zm3.566 10.14c-.162-.97-.81-4.369-2.37-8.43-.025.01-.048.017-.072.025-6.438 2.243-8.612 6.722-8.707 6.918a11.053 11.053 0 0 0 11.15 1.488zm-11.15-1.488v.002l.001-.001v-.001zm0 .002c-.079-.065-.172-.112-.25-.176.144.118.244.192.244.192s.005-.01.006-.016zm-.252-.177l.002.001-.002-.001zm18.029-6.798c-.229-.076-3.332-1.06-6.916-.487 1.454 4.003 2.047 7.261 2.158 7.93a11.091 11.091 0 0 0 4.758-7.443zm.14-1.877a11.073 11.073 0 0 0-2.525-6.942c-.02.033-1.801 2.607-6.186 4.397a32.06 32.06 0 0 1 .977 2.185c3.814-.48 7.572.326 7.734.36z"/></g></g></svg>