<svg xmlns="http://www.w3.org/2000/svg" width="20" height="12" viewBox="0 0 20 12"><g><g><path fill="#c4c0cf" d="M13.054 1.698v-1.2h5.013v1.2zM9.717 6.62c.323.483.485 1.07.485 1.758 0 .712-.183 1.35-.553 1.915a3.374 3.374 0 0 1-.88.942 3.473 3.473 0 0 1-1.406.603A8.997 8.997 0 0 1 5.606 12H0V0H6.01c1.516.023 2.59.447 3.224 1.278.381.51.57 1.121.57 1.832 0 .734-.191 1.32-.576 1.767-.213.25-.53.478-.947.683.633.223 1.113.575 1.435 1.06zM2.87 4.73h2.634c.54 0 .979-.099 1.316-.297.336-.198.504-.55.504-1.055 0-.558-.222-.929-.668-1.107-.384-.124-.874-.188-1.47-.188H2.871zm4.708 3.476c0-.623-.264-1.054-.792-1.285-.295-.132-.71-.199-1.245-.204H2.871v3.198H5.5c.54 0 .959-.068 1.26-.21.545-.262.818-.76.818-1.499zm12.347-1.952c.06.392.088.962.077 1.707h-6.492c.036.863.345 1.468.932 1.813.354.217.783.323 1.285.323.53 0 .961-.13 1.294-.394.18-.141.34-.34.479-.59h2.379c-.062.51-.349 1.027-.864 1.554-.797.835-1.916 1.254-3.353 1.254-1.187 0-2.233-.353-3.14-1.057-.906-.707-1.36-1.854-1.36-3.444 0-1.49.408-2.632 1.226-3.427.822-.796 1.883-1.192 3.19-1.192.775 0 1.474.133 2.097.402a3.577 3.577 0 0 1 1.539 1.273c.366.512.601 1.104.711 1.778zM16.961 5.12c-.37-.31-.831-.466-1.382-.466-.599 0-1.062.166-1.39.493-.332.326-.538.77-.622 1.331h4.017c-.044-.598-.25-1.05-.623-1.358z"/></g></g></svg>