<svg xmlns="http://www.w3.org/2000/svg" width="31" height="28" viewBox="0 0 31 28"><g><g><path fill="#ffd670" d="M3.858 26.342c-1.162-.725-8.578-6.09 4.83-18.051 14.135-12.61 19.401-7.219 20.88-4.753h.004c.023.039.043.078.066.118l.11.198c.013.028.03.057.043.084.18.352.257.582.257.582h-.018c.58 1.696.148 3.442-1.33 3.997l-3.38 1.098c-1.762.661-4.178-.439-5.399-2.456l-.098-.164c-3.774 1.766-7.962 4.789-11.391 9.96l.341.285c1.805 1.516 2.519 4.076 1.598 5.719l-1.823 2.918c-.9 1.601-2.912 1.864-4.69.465z"/></g></g></svg>