<svg xmlns="http://www.w3.org/2000/svg" width="24" height="19" viewBox="0 0 24 19"><g><g><path fill="#c4c0cf" d="M23.338.35c-.952.55-2.007.95-3.128 1.165A4.97 4.97 0 0 0 16.617 0c-2.72 0-4.925 2.15-4.925 4.798 0 .375.044.742.128 1.092C7.728 5.69 4.1 3.78 1.672.877a4.672 4.672 0 0 0-.666 2.411c0 1.665.87 3.134 2.19 3.993a5.02 5.02 0 0 1-2.23-.603v.06c0 2.325 1.697 4.263 3.949 4.705a5.08 5.08 0 0 1-2.224.082c.626 1.905 2.444 3.293 4.598 3.333a10.048 10.048 0 0 1-6.114 2.052c-.398 0-.79-.023-1.175-.065A14.214 14.214 0 0 0 7.547 19c9.057 0 14.009-7.31 14.009-13.651l-.017-.622A9.767 9.767 0 0 0 24 2.247c-.883.382-1.83.64-2.827.756A4.85 4.85 0 0 0 23.338.351z"/></g></g></svg>